<?xml version="1.0" encoding="iso-8859-1"?>
<!-- Generator: Adobe Illustrator 19.0.0, SVG Export Plug-In . SVG Version: 6.00 Build 0)  -->
<svg version="1.1" id="Layer_1" xmlns="http://www.w3.org/2000/svg" xmlns:xlink="http://www.w3.org/1999/xlink" x="0px" y="0px"
	 viewBox="0 0 512.001 512.001" style="enable-background:new 0 0 512.001 512.001;" xml:space="preserve">
<path style="fill:#FF3F62;" d="M256.045,94.033c-59.047,0-86.103,155.103-87.417,207.626h174.839
	C342.289,249.135,317.904,94.033,256.045,94.033z"/>
<path style="fill:#FF0C38;" d="M168.627,301.658h43.376c1.144-45.745,21.819-169.282,66.144-200.413
	c-6.766-4.613-14.121-7.214-22.104-7.214C196.997,94.033,169.942,249.136,168.627,301.658z"/>
<path style="fill:#5EAC24;" d="M168.627,301.658h174.839c-0.382-17.052-3.212-44.917-8.975-74.776H178.263
	C172.196,256.741,169.054,284.606,168.627,301.658z"/>
<path style="fill:#47821C;" d="M221.642,226.882h-43.379c-6.067,29.859-9.209,57.725-9.634,74.776h43.376
	C212.43,284.605,215.573,256.74,221.642,226.882z"/>
<path style="fill:#FFDAAA;" d="M178.263,226.882h156.226c-3.803-19.704-8.886-40.268-15.385-59.175H194.162
	C187.547,186.613,182.266,207.177,178.263,226.882z"/>
<g>
	<path style="fill:#FFC477;" d="M237.544,167.706h-43.383c-6.615,18.907-11.895,39.471-15.898,59.175h43.379
		C225.646,207.178,230.929,186.612,237.544,167.706z"/>
	<path style="fill:#FFC477;" d="M468.087,279.55H44.009c-19.224,0-18.072,19.798-18.072,19.798s-0.016,73.432,71.677,111.97
		c0,0,11.118,6.649,34.829,6.649h247.212c23.711,0,34.829-6.649,34.829-6.649c71.693-38.539,71.677-111.97,71.677-111.97
		S487.312,279.55,468.087,279.55z"/>
</g>
<g>
	<path style="fill:#FFB655;" d="M135.454,299.348c0,0-1.153-19.798,18.072-19.798H44.009c-19.224,0-18.072,19.798-18.072,19.798
		s-0.016,73.432,71.677,111.97c0,0,11.118,6.649,34.829,6.649h109.517c-23.711,0-34.829-6.649-34.829-6.649
		C135.438,372.78,135.454,299.348,135.454,299.348z"/>
	<path style="fill:#FFB655;" d="M351.621,395.152h-15.97c-4.2,0-7.605-3.405-7.605-7.605s3.405-7.605,7.605-7.605h15.97
		c4.2,0,7.605,3.405,7.605,7.605S355.821,395.152,351.621,395.152z"/>
	<path style="fill:#FFB655;" d="M313.341,395.152h-52.224c-4.2,0-7.605-3.405-7.605-7.605s3.405-7.605,7.605-7.605h52.224
		c4.2,0,7.605,3.405,7.605,7.605S317.542,395.152,313.341,395.152z"/>
</g>
<path style="fill:#FF3F62;" d="M468.087,279.55H44.009c-19.224,0-18.072,19.798-18.072,19.798s0,6.553,1.907,16.766h456.407
	c1.907-10.214,1.907-16.766,1.907-16.766S487.312,279.55,468.087,279.55z"/>
<path style="fill:#FF0C38;" d="M153.526,279.55H44.009c-19.224,0-18.072,19.798-18.072,19.798s0,6.553,1.907,16.766h109.517
	c-1.907-10.214-1.907-16.766-1.907-16.766S134.301,279.55,153.526,279.55z"/>
<g>
	<circle style="fill:#6DC82A;" cx="182.549" cy="338.186" r="22.073"/>
	<circle style="fill:#6DC82A;" cx="103.18" cy="338.186" r="22.073"/>
	<circle style="fill:#6DC82A;" cx="256.048" cy="338.186" r="22.073"/>
	<circle style="fill:#6DC82A;" cx="29.681" cy="338.186" r="22.073"/>
</g>
<g>
	<path style="fill:#5EAC24;" d="M28.665,338.188c0-8.378,4.668-15.665,11.544-19.404c-3.129-1.702-6.717-2.669-10.53-2.669
		c-12.191,0-22.074,9.883-22.074,22.073c0,12.191,9.883,22.074,22.074,22.074c3.813,0,7.4-0.967,10.53-2.669
		C33.332,353.853,28.665,346.566,28.665,338.188z"/>
	<path style="fill:#5EAC24;" d="M102.165,338.188c0-8.378,4.668-15.665,11.544-19.404c-3.129-1.702-6.717-2.669-10.53-2.669
		c-12.191,0-22.074,9.883-22.074,22.073c0,12.191,9.883,22.074,22.074,22.074c3.813,0,7.4-0.967,10.53-2.669
		C106.831,353.853,102.165,346.566,102.165,338.188z"/>
	<path style="fill:#5EAC24;" d="M181.534,338.188c0-8.378,4.668-15.665,11.544-19.404c-3.129-1.702-6.717-2.669-10.53-2.669
		c-12.191,0-22.074,9.883-22.074,22.073c0,12.191,9.883,22.074,22.074,22.074c3.813,0,7.4-0.967,10.53-2.669
		C186.202,353.853,181.534,346.566,181.534,338.188z"/>
	<path style="fill:#5EAC24;" d="M255.034,338.188c0-8.378,4.668-15.665,11.544-19.404c-3.129-1.702-6.717-2.669-10.53-2.669
		c-12.191,0-22.074,9.883-22.074,22.073c0,12.191,9.883,22.074,22.074,22.074c3.813,0,7.4-0.967,10.53-2.669
		C259.701,353.853,255.034,346.566,255.034,338.188z"/>
</g>
<g>
	<circle style="fill:#6DC82A;" cx="408.916" cy="338.186" r="22.073"/>
	<circle style="fill:#6DC82A;" cx="329.546" cy="338.186" r="22.073"/>
	<circle style="fill:#6DC82A;" cx="482.414" cy="338.186" r="22.073"/>
</g>
<g>
	<path style="fill:#5EAC24;" d="M328.533,338.188c0-8.378,4.668-15.665,11.544-19.404c-3.129-1.702-6.717-2.669-10.53-2.669
		c-12.191,0-22.074,9.883-22.074,22.073c0,12.191,9.883,22.074,22.074,22.074c3.813,0,7.4-0.967,10.53-2.669
		C333.201,353.853,328.533,346.566,328.533,338.188z"/>
	<path style="fill:#5EAC24;" d="M407.903,338.188c0-8.378,4.668-15.665,11.544-19.404c-3.129-1.702-6.717-2.669-10.53-2.669
		c-12.191,0-22.074,9.883-22.074,22.073c0,12.191,9.883,22.074,22.074,22.074c3.813,0,7.4-0.967,10.53-2.669
		C412.57,353.853,407.903,346.566,407.903,338.188z"/>
	<path style="fill:#5EAC24;" d="M481.403,338.188c0-8.378,4.668-15.665,11.544-19.404c-3.129-1.702-6.717-2.669-10.53-2.669
		c-12.191,0-22.074,9.883-22.074,22.073c0,12.191,9.883,22.074,22.074,22.074c3.813,0,7.4-0.967,10.53-2.669
		C486.07,353.853,481.403,346.566,481.403,338.188z"/>
</g>
<path d="M511.968,335.414c-1.087-11.68-8.716-21.166-19.101-25.03c0.786-5.943,0.884-9.876,0.895-10.824
	c0.084-2.034,0.142-12.621-7.082-20.277c-3.159-3.347-8.948-7.339-18.594-7.339H348.965c-2.208-20.26-8.861-69.384-24.879-112.95
	c-17.703-48.152-40.596-72.567-68.042-72.567c-26.272,0-48.674,24.196-66.587,71.917c-16.77,44.683-23.859,94.289-26.132,113.6
	H44.008c-9.646,0-15.435,3.991-18.594,7.339c-7.223,7.656-7.165,18.242-7.082,20.277c0.012,0.949,0.111,4.89,0.9,10.853
	C8.008,314.648,0,325.499,0,338.188c0,16.365,13.313,29.678,29.679,29.678c3.247,0,6.371-0.531,9.298-1.5
	c13.127,21.668,31.564,39.012,54.922,51.591c2.05,1.177,14.372,7.617,38.543,7.617h247.212c24.174,0,36.496-6.441,38.544-7.617
	c23.358-12.58,41.794-29.925,54.919-51.591c2.928,0.968,6.052,1.501,9.3,1.501c6.906,0,13.632-2.426,18.939-6.829
	c3.233-2.682,3.679-7.477,0.997-10.709c-2.682-3.233-7.477-3.678-10.709-0.997c-2.621,2.175-5.813,3.324-9.228,3.324
	c-7.978,0-14.468-6.49-14.468-14.467s6.49-14.468,14.468-14.468c7.517,0,13.711,5.633,14.406,13.103
	c0.389,4.183,4.094,7.258,8.278,6.868C509.281,343.301,512.356,339.596,511.968,335.414z M256.045,101.638
	c21.736,0,39.169,24.804,52.151,58.464H205.16C218.199,126.612,235.344,101.638,256.045,101.638z M184.545,234.488h97.868
	c4.2,0,7.605-3.405,7.605-7.605s-3.405-7.605-7.605-7.605h-94.708c3.325-14.934,7.334-29.922,11.993-43.964h113.879
	c4.55,13.979,8.421,28.944,11.606,43.964h-20.46c-4.2,0-7.605,3.405-7.605,7.605s3.405,7.605,7.605,7.605h23.454
	c2.344,12.887,4.18,25.573,5.493,37.457H178.641C180.053,260.229,182.029,247.515,184.545,234.488z M36.478,289.722
	c1.63-1.727,4.093-2.567,7.53-2.567h424.079c3.409,0,5.858,0.824,7.487,2.521c2.651,2.761,2.954,13.196,2.185,18.924
	c-0.365-0.054-443.435-0.09-443.435-0.09C33.568,302.834,33.39,292.995,36.478,289.722z M423.385,338.188
	c0,7.978-6.49,14.467-14.468,14.467c-7.979,0-14.468-6.49-14.468-14.467s6.49-14.468,14.468-14.468
	C416.895,323.719,423.385,330.21,423.385,338.188z M344.015,338.188c0,7.978-6.49,14.467-14.468,14.467
	c-7.979,0-14.468-6.49-14.468-14.467s6.49-14.468,14.468-14.468C337.526,323.719,344.015,330.21,344.015,338.188z M270.516,338.188
	c0,7.978-6.49,14.467-14.468,14.467c-7.979,0-14.468-6.49-14.468-14.467s6.49-14.468,14.468-14.468
	C264.026,323.719,270.516,330.21,270.516,338.188z M197.017,338.188c0,7.978-6.49,14.467-14.468,14.467
	c-7.979,0-14.468-6.49-14.468-14.467s6.49-14.468,14.468-14.468C190.527,323.719,197.017,330.21,197.017,338.188z M117.646,338.188
	c0,7.978-6.49,14.467-14.468,14.467s-14.468-6.49-14.468-14.467s6.49-14.468,14.468-14.468S117.646,330.21,117.646,338.188z
	 M15.211,338.188c0-7.978,6.49-14.468,14.468-14.468s14.468,6.49,14.468,14.468c0,7.978-6.49,14.467-14.468,14.467
	S15.211,346.165,15.211,338.188z M410.881,404.62l-0.23,0.129c-0.098,0.056-10.125,5.614-30.997,5.614H132.441
	c-20.872,0-30.899-5.557-30.924-5.571l-0.302-0.171c-21.13-11.358-37.753-27.015-49.5-46.575c4.748-5.263,7.644-12.227,7.644-19.857
	c0-5.251-1.376-10.184-3.779-14.468h21.7c-2.402,4.283-3.779,9.217-3.779,14.468c0,16.365,13.313,29.678,29.679,29.678
	s29.679-13.313,29.679-29.678c0-5.251-1.376-10.184-3.779-14.468h27.571c-2.402,4.283-3.779,9.217-3.779,14.468
	c0,16.365,13.313,29.678,29.679,29.678s29.679-13.313,29.679-29.678c0-5.251-1.376-10.184-3.779-14.468h21.7
	c-2.402,4.283-3.779,9.217-3.779,14.468c0,16.365,13.313,29.678,29.679,29.678s29.679-13.313,29.679-29.678
	c0-5.251-1.376-10.184-3.779-14.468h21.7c-2.402,4.283-3.779,9.217-3.779,14.468c0,16.365,13.313,29.678,29.679,29.678
	s29.679-13.313,29.679-29.678c0-5.251-1.376-10.184-3.779-14.468h27.571c-2.402,4.283-3.779,9.217-3.779,14.468
	c0,16.365,13.313,29.678,29.679,29.678c16.366,0,29.679-13.313,29.679-29.678c0-5.251-1.376-10.184-3.779-14.468h21.7
	c-2.402,4.283-3.779,9.217-3.779,14.468c0,7.629,2.895,14.592,7.642,19.855C448.633,377.603,432.013,393.262,410.881,404.62z"/>
<g>
</g>
<g>
</g>
<g>
</g>
<g>
</g>
<g>
</g>
<g>
</g>
<g>
</g>
<g>
</g>
<g>
</g>
<g>
</g>
<g>
</g>
<g>
</g>
<g>
</g>
<g>
</g>
<g>
</g>
</svg>
